<svg xmlns="http://www.w3.org/2000/svg" viewBox="0 0 60.37 59.24"><defs><style>.cls-1{fill:#009ad1;}.cls-2{fill:#f08d22;}.cls-3{fill:#194358;}.cls-4{fill:#e7611b;}</style></defs><title>loek-weijts-logo</title><g id="Layer_2" data-name="Layer 2"><g id="Layer_6" data-name="Layer 6"><g id="_Group_" data-name="&lt;Group&gt;"><path class="cls-1" d="M58.73,50.84l1.65,2.24a19.5,19.5,0,0,1-13,6.12c-11.13.61-18.21-5.45-23.81-9.86a46.84,46.84,0,0,0,2.86-5.51c8.5,3.8,12.49,10.89,20.35,10.89C50.81,54.72,54.09,54.42,58.73,50.84Z"/><path class="cls-2" d="M42.44.78C49,.33,53.65,3.47,53.34,9.3s-6.7,19.41-20.71,17.23c.35-1.16.68-2.33,1-3.49q.3-1.1.6-2.12c7.28-.52,12-5,13.15-7.89,1.34-3.43.89-8.52-4.63-7.17-2.93.72-5.49,4.69-8.51,15.06a20.61,20.61,0,0,1-4-.12A16.33,16.33,0,0,1,26,19.74c.52-1.9,1.05-3.79,1.66-5.66C29.89,7.21,35.86,1.23,42.44.78Z"/><path class="cls-3" d="M34.23,20.92q-.3,1-.6,2.12c-.32,1.16-.65,2.33-1,3.49l-1.1-.2a30,30,0,0,1-6.72-2.17c.39-1.46.77-2.94,1.17-4.42a16.33,16.33,0,0,0,4.2,1.07A20.61,20.61,0,0,0,34.23,20.92Z"/><path class="cls-4" d="M31.53,26.33l1.1.2a140.58,140.58,0,0,1-6.2,17.3,25.88,25.88,0,0,0-5.05-1.66q-1.44-.32-2.76-.52c1-2.07,2-4.46,3.06-7.25a95.81,95.81,0,0,0,3.14-10.24A30,30,0,0,0,31.53,26.33Z"/><path class="cls-1" d="M28.4,1.08,27.34,3.62s-4.48-2.84-6.72,3C18.76,11.46,20,17.25,26,19.74c-.4,1.48-.78,3-1.17,4.42C10.55,17.4,17.52,2.37,21.22.78,25.7-1.14,28.4,1.08,28.4,1.08Z"/><path class="cls-2" d="M26.43,43.83a46.84,46.84,0,0,1-2.86,5.51l-1.15-.9a16.35,16.35,0,0,0-5.87-2.76c.69-1.18,1.37-2.51,2.08-4q1.32.2,2.76.52A25.88,25.88,0,0,1,26.43,43.83Z"/><path class="cls-3" d="M22.41,48.44l1.15.9a17,17,0,0,1-1.74,2.39c-3.89,4.33-7.91,7-14.49,7-5.09,0-7.48-5.08-7.32-7.92s3.2-11.55,18.61-9.18c-.71,1.52-1.39,2.86-2.08,4a15.93,15.93,0,0,0-8.92.07C4,47.1,3.44,48.3,3.44,50.84s3,3.14,5.67,2.09c2.88-1.12,5.12-3.26,7.42-7.24A16.35,16.35,0,0,1,22.41,48.44Z"/></g></g></g></svg>